<?xml version="1.0" encoding="UTF-8" standalone="no"?>
<!DOCTYPE svg PUBLIC "-//W3C//DTD SVG 1.1//EN" "http://www.w3.org/Graphics/SVG/1.1/DTD/svg11.dtd">
<svg width="100%" height="100%" viewBox="0 0 2174 2174" version="1.1" xmlns="http://www.w3.org/2000/svg"
     xml:space="preserve" style="fill-rule:evenodd;clip-rule:evenodd;stroke-linejoin:round;stroke-miterlimit:2;">
    <g id="Horloge_Stop">
        <path style="fill:currentColor" d="M1086.614,329.153c43.696,-1.861 124.456,-2.415 223.069,17.756c134.136,27.438 260.895,84.798 370.5,168.404c11.209,8.55 24.181,19.402 26.249,21.131c64.878,54.271 165.379,153.703 236.995,308.256c0.048,0.104 4.729,10.327 10.42,24.003c27.761,66.715 41.529,123.299 48.778,158.416c1.297,6.284 3.272,17.939 3.537,19.503c7.532,44.447 11.663,89.837 12.211,135.864c0.002,0.145 0.033,26.929 -2.875,62.241c-3.262,39.609 -8.558,70.773 -11.97,89.024c-0.002,0.01 -2.257,11.353 -5.772,26.186c-14.416,60.85 -32.798,108.996 -46.559,141.17c-0.077,0.181 -4.77,10.983 -11.471,24.979c-106.788,223.018 -305.531,393.784 -546.807,467.734c-17.508,5.366 -78.097,25.186 -163.274,35.832c-11.581,1.447 -66.218,10.033 -141.602,9.104c-10.128,-0.125 -66.306,1.776 -141.707,-8.733c-15.602,-2.175 -80.198,-9.169 -163.43,-35.392c-23.097,-7.277 -100.425,-30.235 -192.654,-83.836c-158.52,-92.128 -290.007,-232.996 -367.67,-408.425c-0.092,-0.207 -5.051,-11.572 -10.996,-26.781c-21.631,-55.331 -34.077,-103.957 -41.605,-140.451c-0.035,-0.168 -3.699,-18.647 -7.098,-43.431c-4.802,-35.013 -7.496,-70.506 -8.022,-106.303c-0.015,-1.022 0.001,-26.351 2.572,-59.375c3.383,-43.449 9.459,-79.499 14.797,-105.789c0.044,-0.217 3.362,-16.13 8.828,-36.944c19.091,-72.693 43.9,-128.55 60.952,-163.21c4.158,-8.452 10.449,-20.123 11.384,-21.859c40.847,-75.788 129.226,-213.308 299.405,-324.551c10.832,-7.081 24.253,-15.089 26.385,-16.362c144.207,-86.051 314.915,-133.862 496.019,-128.599c3.556,0.103 10.499,0.399 11.412,0.438Zm0,105.008c-0.417,0.025 -0.839,0.048 -1.267,0.07c-59.982,3.101 -228.762,15.834 -400.86,130.501c-6.315,4.207 -25.796,17.152 -53.882,39.294c-152.228,120.016 -209.021,258.745 -225.178,297.593c-26.542,63.818 -38.033,118.52 -43.678,153.669c-1.769,11.015 -11.18,60.011 -10.261,127.522c0.125,9.167 -1.743,54.949 8.096,117.9c1.42,9.086 7.066,57.501 27.625,120.229c0.515,1.572 2.159,6.588 6.659,19.574c67.535,194.878 222.34,357.517 426.166,440.697c0.104,0.042 12.81,5.144 29.98,11.105c44.211,15.351 82.532,24.25 110.433,29.639c0.036,0.007 17.644,3.217 41.328,6.055c27.57,3.305 55.468,5.212 83.572,5.694c1.706,0.029 23.627,-0.153 51.509,-2.294c32.975,-2.532 59.048,-6.556 74.723,-9.232c0.048,-0.008 12.425,-2.296 28.608,-6.009c49.077,-11.26 87.476,-24.96 111.912,-34.517c0.1,-0.039 9.041,-3.622 20.619,-8.713c193.555,-85.112 343.075,-244.271 408.404,-437.573c4.518,-13.369 22.737,-63.298 32.368,-133.564c1.269,-9.26 9.195,-54.319 8.252,-116.72c-0.136,-9.017 1.598,-57.411 -9.22,-122.168c-2.388,-14.295 -10.25,-71.513 -38.332,-143.971c-8.251,-21.289 -34.06,-91.246 -93.361,-171.593c-44.04,-59.669 -86.433,-97.939 -105.1,-114.765c-124.495,-112.215 -290.815,-186.671 -478.997,-197.848l-5.053,-0.298c-0.304,-0.017 -2.049,-0.116 -3.797,-0.207c-0.428,-0.022 -0.85,-0.046 -1.267,-0.07Z"/>
        <path style="fill:currentColor;stroke:currentColor;stroke-width:100px" d="M1695.377,445.232l-67.197,-44.421c0,0 87.475,-51.831 137.913,-19.152c40.64,26.331 36.236,142.425 36.236,142.425l-74.885,-53.761l-97.812,130.579c-0.742,1.117 -29.616,-28.849 -30.892,-29.697c0,0 11.061,-14.63 11.804,-15.747l84.833,-110.227Z"/>
        <rect style="fill:currentColor;stroke:currentColor;stroke-width:100px" x="791.339" y="888.67" width="590.551" height="590.551"/>
        <path style="fill:currentColor;stroke:currentColor;stroke-width:100px" d="M803.117,245.218l-0.078,-56.896c19.334,-4.146 38.482,-9.134 57.816,-13.28c24.144,-5.178 48.35,-10.072 72.607,-14.69c12.97,-2.469 26.01,-4.563 39.059,-6.567c10.669,-1.638 21.392,-2.905 32.089,-4.358c22.894,-3.109 22.931,-2.757 45.959,-4.608c6.217,-0.499 12.451,-0.762 18.683,-0.992c6.021,-0.222 12.047,-0.38 18.073,-0.361c6.252,0.019 12.506,0.179 18.751,0.474c5.243,0.248 26.316,1.244 65.307,6.36c15.692,2.059 31.332,4.506 46.951,7.058c15.309,2.502 30.594,5.168 45.826,8.102c25.065,4.828 50.068,9.974 75.056,15.184c10.33,2.154 20.564,4.752 30.895,6.906l0.078,56.896c-10.324,2.182 -20.551,4.808 -30.876,6.99c-24.974,5.278 -49.963,10.492 -75.015,15.388c-15.224,2.976 -30.501,5.683 -45.804,8.227c-15.612,2.595 -31.246,5.084 -46.932,7.186c-38.977,5.222 -60.046,6.276 -65.289,6.538c-6.244,0.312 -12.497,0.489 -18.75,0.525c-6.025,0.035 -12.052,-0.107 -18.074,-0.312c-6.233,-0.212 -12.468,-0.458 -18.686,-0.941c-23.033,-1.787 -23.069,-1.436 -45.972,-4.482c-10.7,-1.423 -21.427,-2.661 -32.1,-4.27c-13.055,-1.968 -26.101,-4.027 -39.077,-6.461c-24.27,-4.552 -48.489,-9.38 -72.647,-14.492c-19.345,-4.094 -38.506,-9.029 -57.852,-13.123Z"/>
    </g>
</svg>