<?xml version="1.0" encoding="UTF-8" standalone="no"?><!DOCTYPE svg PUBLIC "-//W3C//DTD SVG 1.1//EN" "http://www.w3.org/Graphics/SVG/1.1/DTD/svg11.dtd">
<svg width="100%" height="100%" viewBox="0 0 2245 2245" version="1.1" xmlns="http://www.w3.org/2000/svg"
    xml:space="preserve" style="fill-rule:evenodd;clip-rule:evenodd;stroke-linejoin:round;stroke-miterlimit:2;"><g id="Crayon"><path d="M2113.716,451.557l-1300.366,1243.95c-35.895,34.338 -94.152,34.365 -130.012,0.061l-129.948,-124.31c-35.86,-34.304 -35.831,-90.033 0.064,-124.371l1300.366,-1243.95c35.895,-34.338 94.152,-34.365 130.012,-0.061l129.948,124.31c35.86,34.304 35.831,90.033 -0.064,124.371Z" style="fill:#e7e8e9;"/><path d="M2100.154,464.53l-141.106,134.984l-259.896,-248.62l141.106,-134.984l259.896,248.62Z" style="fill:currentColor;"/><path d="M234.175,2011.451l197.635,-453.36l268.198,248.846l-465.833,204.514Z" style="fill:#e7e8e9;"/><clipPath id="_clip1"><path d="M234.175,2011.451l197.635,-453.36l268.198,248.846l-465.833,204.514Z"/></clipPath><g clip-path="url(#_clip1)"><path d="M235.601,2007.713l91.479,-225.928l139.218,126.648l-230.698,99.281Z" style="fill:currentColor;"/></g><path d="M1901.873,644.335l-1215.329,1162.602l-254.735,-243.683l1215.329,-1162.602l254.735,243.683Z" style="fill:currentColor;"/></g></svg>