<?xml version="1.0" encoding="UTF-8" standalone="no"?><!DOCTYPE svg PUBLIC "-//W3C//DTD SVG 1.1//EN" "http://www.w3.org/Graphics/SVG/1.1/DTD/svg11.dtd">
<svg width="100%" height="100%" viewBox="0 0 2245 2245" version="1.1" xmlns="http://www.w3.org/2000/svg"
    xml:space="preserve" style="fill-rule:evenodd;clip-rule:evenodd;stroke-linecap:round;stroke-linejoin:round;stroke-miterlimit:1.5;">
    <g id="Crayon">
        <path d="M1984.837,569.39l-132.652,126.897l-295.388,-282.572l132.652,-126.897l295.388,282.572Z" style="fill:currentColor;stroke:currentColor;stroke-width:1px;"/>
        <path d="M2025.339,541.244l-241.163,231.267c-40.383,38.726 -105.979,38.813 -146.391,0.194l-146.444,-139.944c-40.412,-38.619 -40.436,-101.413 -0.053,-140.139l241.163,-231.267c40.383,-38.726 105.979,-38.813 146.391,-0.194l146.444,139.944c40.412,38.619 40.436,101.413 0.053,140.139Z" style="fill:none;stroke:currentColor;stroke-width:50px;"/>
        <g clip-path="url(#_clip1)">
            <path d="M189.652,2010.221l80.89,-227.806l154.95,145.693l-235.84,82.113Z" style="fill:currentColor;"/>
        </g>
        <path d="M188.405,2013.998c0,-0 136.307,-350.793 169.762,-436.891c1.64,-4.22 5.278,-7.344 9.698,-8.325c4.42,-0.982 9.038,0.308 12.311,3.437c60.065,57.438 284.173,271.743 284.173,271.743l-475.943,170.037Z" style="fill:none;stroke:currentColor;stroke-width:50px;"/>
        <path d="M1805.621,752.252l-1142.513,1092.945l-293.594,-280.856l1142.513,-1092.945l293.594,280.856Z" style="fill:currentColor;stroke:currentColor;stroke-width:50px;"/>
    </g>
</svg>