<?xml version="1.0" encoding="UTF-8" standalone="no"?><!DOCTYPE svg PUBLIC "-//W3C//DTD SVG 1.1//EN" "http://www.w3.org/Graphics/SVG/1.1/DTD/svg11.dtd">
<svg width="100%" height="100%" viewBox="0 0 2245 2245" version="1.1" xmlns="http://www.w3.org/2000/svg"
    xml:space="preserve" style="fill-rule:evenodd;clip-rule:evenodd;stroke-linejoin:round;stroke-miterlimit:2;"><g id="Poubelle"><path d="M1580.235,551.955l0,1308.368c0,40.478 -32.863,73.34 -73.34,73.34l-843.395,0c-40.478,0 -73.34,-32.863 -73.34,-73.34l0,-1308.368c0,-40.478 32.863,-73.34 73.34,-73.34l843.395,0c40.478,0 73.34,32.863 73.34,73.34Z" style="fill:currentColor;"/><path d="M1578.37,314.969l-0,136.539l-986.345,0l0,-136.539l986.345,-0Z" style="fill:currentColor;"/><path d="M1578.37,314.969l0.043,136.613c-986.402,0.595 -986.403,0.601 -986.493,0.587c-0.321,-0.05 -0.566,-0.338 -0.566,-0.662l-0.068,-136.539c-0,-0.403 0.339,-0.74 0.739,-0.74l649.372,-0.152l336.973,0.892c-325.822,1.175 -325.818,0.987 -985.606,0.74l-0.069,135.129l985.589,0.584l0.086,-136.452Z" style="fill:#231f20;"/><path d="M1151.886,320.098l-133.378,0c-3.863,0 -6.994,-3.131 -6.994,-6.994c-0,-22.189 7.676,-43.449 21.235,-59.139c1.329,-1.537 3.26,-2.421 5.292,-2.421l94.313,-0c2.032,-0 3.963,0.884 5.292,2.421c13.56,15.69 21.235,36.95 21.235,59.139c0,3.863 -3.131,6.994 -6.994,6.994Z" style="fill:currentColor;"/><rect x="756.809" y="659.258" width="15.39" height="1125.22" style="fill:#fff;"/><rect x="970.928" y="662.258" width="15.39" height="1125.22" style="fill:#fff;"/><rect x="1185.047" y="662.258" width="15.39" height="1125.22" style="fill:#fff;"/><rect x="1399.166" y="659.258" width="15.39" height="1125.22" style="fill:#fff;"/></g></svg>