<?xml version="1.0" encoding="UTF-8" standalone="no"?>
<!DOCTYPE svg PUBLIC "-//W3C//DTD SVG 1.1//EN"
    "http://www.w3.org/Graphics/SVG/1.1/DTD/svg11.dtd">
<svg style="fill-rule:evenodd;clip-rule:evenodd;stroke-linejoin:round;stroke-miterlimit:2;" height="100%" version="1.1" viewBox="0 0 2174 2174"
    width="100%" xmlns="http://www.w3.org/2000/svg" xml:space="preserve">
    <g id="Poubelle">
        <path style="fill:currentColor;" d="M1625.713,571.659l0,1437.227c0,44.08 -35.788,79.868 -79.868,79.868l-918.461,0c-44.08,0 -79.868,-35.788 -79.868,-79.868l0,-1437.227c0,-44.08 35.788,-79.868 79.868,-79.868l918.461,0c44.08,0 79.868,35.788 79.868,79.868Zm-245.322,145.744l-61.336,0l0,1145.74l61.336,0l0,-1145.74Zm-253.809,0l-61.336,0l0,1145.74l61.336,0l0,-1145.74Zm-273.536,0l-61.336,0l0,1145.74l61.336,0l0,-1145.74Z"/>
        <path style="fill:currentColor;" d="M1608.642,254.559l0,104.839c0,37.094 -30.115,67.209 -67.209,67.209l-926.708,0c-37.094,0 -67.209,-30.115 -67.209,-67.209l0,-104.839c0,-37.094 30.116,-67.209 67.209,-67.209l926.708,0c37.094,0 67.209,30.115 67.209,67.209Z"/>
        <path style="fill:currentColor;" d="M1192.279,188.955l-211.422,0c-3.863,0 -6.994,-3.131 -6.994,-6.994c-0,-34.164 11.787,-66.909 32.664,-91.067c1.329,-1.537 3.26,-2.421 5.292,-2.421l149.498,-0c2.032,-0 3.963,0.884 5.292,2.421c20.878,24.158 32.664,56.902 32.664,91.067c0,3.863 -3.131,6.994 -6.994,6.994Z"/>
    </g>
</svg>